<?xml version="1.0" standalone="no"?><!DOCTYPE svg PUBLIC "-//W3C//DTD SVG 1.1//EN" "http://www.w3.org/Graphics/SVG/1.1/DTD/svg11.dtd"><svg t="1594022501770" class="icon" viewBox="0 0 1024 1024" version="1.1" xmlns="http://www.w3.org/2000/svg" p-id="2427" xmlns:xlink="http://www.w3.org/1999/xlink" width="200" height="200"><defs><style type="text/css"></style></defs><path d="M512 42.666667C251.733333 42.666667 42.666667 251.733333 42.666667 512s209.066667 469.333333 469.333333 469.333333 469.333333-209.066667 469.333333-469.333333S772.266667 42.666667 512 42.666667z m0 853.333333c-213.333333 0-384-170.666667-384-384s170.666667-384 384-384 384 170.666667 384 384-170.666667 384-384 384z m0-256c-34.133333 0-64 29.866667-64 64S477.866667 768 512 768s64-29.866667 64-64c0-17.066667-8.533333-34.133333-17.066667-46.933333-12.8-8.533333-29.866667-17.066667-46.933333-17.066667z m0-384c34.133333 0 64 29.866667 64 64v213.333333c0 34.133333-29.866667 64-64 64s-64-29.866667-64-64v-213.333333c0-34.133333 29.866667-64 64-64z" p-id="2428" fill="#ea9518"></path></svg>